<?xml version="1.0" encoding="UTF-8"?>
<svg xmlns="http://www.w3.org/2000/svg" viewBox="0 0 849.95 849.94">
  <defs>
    <style>.e{fill:#fff;}.f{fill:#00234c;fill-rule:evenodd;}</style>
  </defs>
  <g id="a" />
  <g id="b">
    <g id="c">
      <g id="d">
        <g>
          <path class="e" d="M424.98,849.94C190.64,849.94,0,659.3,0,424.97S190.64,0,424.98,0s424.97,190.64,424.97,424.97-190.64,424.97-424.97,424.97Z" />
          <path class="f" d="M358.33,426.98v246.31c0,3.54,2.87,6.41,6.42,6.41h91.47c3.54,0,6.42-2.87,6.42-6.41v-250.32h66.31c3.33,0,6.11-2.55,6.39-5.87l6.38-75.42c.32-3.74-2.64-6.96-6.39-6.96h-72.69v-53.51c0-12.54,10.17-22.71,22.71-22.71h51.11c3.54,0,6.42-2.87,6.42-6.42v-75.42c0-3.54-2.87-6.42-6.42-6.42h-86.35c-50.67,0-91.76,41.08-91.76,91.76v72.71h-45.73c-3.54,0-6.42,2.87-6.42,6.42v75.42c0,3.54,2.87,6.41,6.42,6.41h45.73v4.01Z" />
        </g>
      </g>
    </g>
  </g>
</svg>