<?xml version="1.0" encoding="UTF-8"?>
<svg xmlns="http://www.w3.org/2000/svg" viewBox="0 0 849.95 849.94">
  <defs>
    <style>.e,.f{fill:#00234c;}.g{fill:#fff;}.f{fill-rule:evenodd;}</style>
  </defs>
  <g id="a" />
  <g id="b">
    <g id="c">
      <g id="d">
        <g>
          <path class="g" d="M424.97,849.94C190.64,849.94,0,659.3,0,424.97S190.64,0,424.97,0s424.98,190.64,424.98,424.97-190.64,424.97-424.98,424.97Z" />
          <g>
            <path class="e" d="M669.22,269.88c-15.74,7.12-33.06,11.44-50.04,14.29,8.06-1.35,19.94-15.95,24.69-21.85,7.25-9,13.28-19.26,16.66-30.34,.43-.87,.76-1.95-.1-2.61-1.09-.43-1.79-.21-2.65,.22-18.96,10.16-38.56,17.53-59.43,22.74-1.73,.43-3.01,0-4.1-1.09-1.73-1.95-3.35-3.79-5.19-5.31-8.77-7.46-18.18-13.32-28.79-17.64-13.93-5.68-29.15-8.08-44.16-7.11-14.6,.95-28.94,5.06-41.89,11.83-12.98,6.78-24.57,16.22-33.8,27.61-9.54,11.78-16.58,25.68-20.18,40.42-3.48,14.23-3.19,28.3-1.07,42.68,.32,2.38,.11,2.71-2.05,2.38-81.63-12.15-149.3-41.36-204.23-103.95-2.38-2.72-3.68-2.72-5.63,.21-24.04,36.03-12.37,93.91,17.65,122.36,4,3.79,8.12,7.58,12.55,11.04-1.62,.33-21.6-1.83-39.41-11.04-2.38-1.51-3.58-.64-3.79,2.06-.22,3.89,.11,7.47,.64,11.7,4.61,36.52,29.91,70.31,64.54,83.49,4.11,1.73,8.66,3.25,13.1,4-7.89,1.73-16.02,2.97-38.65,1.2-2.82-.54-3.89,.87-2.82,3.57,17.01,46.35,53.72,60.15,81.21,68,3.68,.64,7.36,.64,11.06,1.51-.22,.33-.44,.33-.65,.65-9.12,13.9-40.74,24.25-55.46,29.39-26.78,9.36-55.93,13.57-84.23,10.78-4.53-.66-5.48-.62-6.71,0-1.24,.77-.16,1.85,1.3,3.03,5.74,3.79,11.59,7.15,17.54,10.4,17.97,9.52,36.71,17.11,56.3,22.52,101.19,27.95,215.17,7.41,291.15-68.08,59.66-59.28,80.58-141.03,80.58-222.88,0-3.2,3.79-4.97,6.04-6.66,15.52-11.66,27.86-25.62,39.44-41.21,2.6-3.5,2.44-6.62,2.44-7.89v-.43c0-1.31,.16-.92-1.85,0Z" />
            <path class="f" d="M322.85,627.21c-.65,.05-8.17,0,0,0,0,0-1.31,0,0,0Z" />
            <path class="f" d="M339.52,627.65c0-.83,8.78,0,0,0,0-.43,1.08,0,0,0Z" />
            <path class="f" d="M514.72,221.58c-.54,.43-1.3,.43-2.05,0h2.05Z" />
          </g>
        </g>
      </g>
    </g>
  </g>
</svg>