<?xml version="1.0" encoding="UTF-8"?>
<svg xmlns="http://www.w3.org/2000/svg" viewBox="0 0 285.28 285.28">
  <defs>
    <style>.d{fill:#fff;}.e{fill:#12254b;}</style>
  </defs>
  <g id="a" />
  <g id="b">
    <g id="c">
      <g>
        <path class="d" d="M142.64,285.28C63.99,285.28,0,221.29,0,142.64S63.99,0,142.64,0s142.64,63.99,142.64,142.64-63.99,142.64-142.64,142.64Z" />
        <g>
          <path class="e" d="M190.72,85.25c-5.8,0-10.5,4.7-10.5,10.5s4.7,10.5,10.5,10.5,10.5-4.7,10.5-10.5-4.7-10.5-10.5-10.5Z" />
          <path class="e" d="M144.02,98.72c-24.33,0-44.13,19.79-44.13,44.13s19.8,44.13,44.13,44.13,44.12-19.79,44.12-44.13-19.79-44.13-44.12-44.13Zm0,72.39c-15.59,0-28.27-12.68-28.27-28.27s12.68-28.27,28.27-28.27,28.26,12.68,28.26,28.27-12.68,28.27-28.26,28.27Z" />
          <path class="e" d="M179.14,52.52H108.22c-29.73,0-53.82,24.1-53.82,53.82v70.92c0,29.72,24.1,53.82,53.82,53.82h70.92c29.73,0,53.82-24.1,53.82-53.82V106.34c0-29.72-24.1-53.82-53.82-53.82Zm.07,161.78H108.15c-20.42,0-36.97-16.55-36.97-36.97V106.26c0-20.41,16.55-36.96,36.96-36.96h71.07c20.42,0,36.97,16.55,36.97,36.97v71.07c0,20.41-16.55,36.96-36.96,36.96Z" />
        </g>
      </g>
    </g>
  </g>
</svg>