<?xml version="1.0" encoding="UTF-8"?>
<svg xmlns="http://www.w3.org/2000/svg" viewBox="0 0 566.59 566.59">
  <defs>
    <style>.d{fill:#fff;}.e{fill:#12254b;}</style>
  </defs>
  <g id="a" />
  <g id="b">
    <g id="c">
      <g>
        <path class="d" d="M283.3,566.59C127.09,566.59,0,439.51,0,283.3S127.09,0,283.3,0s283.3,127.09,283.3,283.3-127.09,283.3-283.3,283.3Z" />
        <path class="e" d="M452.93,240.34c0-40.18-32.57-72.75-72.75-72.75H191.48c-40.18,0-72.75,32.57-72.75,72.75v88.44c0,40.18,32.57,72.75,72.75,72.75h188.7c40.18,0,72.75-32.57,72.75-72.75v-88.44Zm-119.05,48.67l-75.25,41.27c-3.27,1.77-6.21-.6-6.21-4.32v-84.72c0-3.77,3.03-6.13,6.31-4.27l75.77,43.45c3.35,1.91,2.78,6.75-.61,8.59Z" />
      </g>
    </g>
  </g>
</svg>